<?xml version="1.0" encoding="UTF-8" standalone="no"?>
<svg
   xmlns:dc="http://purl.org/dc/elements/1.1/"
   xmlns:cc="http://creativecommons.org/ns#"
   xmlns:rdf="http://www.w3.org/1999/02/22-rdf-syntax-ns#"
   xmlns:svg="http://www.w3.org/2000/svg"
   xmlns="http://www.w3.org/2000/svg"
   xmlns:sodipodi="http://sodipodi.sourceforge.net/DTD/sodipodi-0.dtd"
   xmlns:inkscape="http://www.inkscape.org/namespaces/inkscape"
   width="170mm"
   height="70mm"
   viewBox="0 0 170 70.000001"
   version="1.1"
   id="svg8"
   inkscape:version="1.0.2 (e86c870879, 2021-01-15, custom)"
   sodipodi:docname="logo.svg">
  <defs
     id="defs2" />
  <sodipodi:namedview
     id="base"
     pagecolor="#ffffff"
     bordercolor="#666666"
     borderopacity="1.0"
     inkscape:pageopacity="0.0"
     inkscape:pageshadow="2"
     inkscape:zoom="1.3387713"
     inkscape:cx="297.25316"
     inkscape:cy="229.37241"
     inkscape:document-units="mm"
     inkscape:current-layer="layer1"
     inkscape:document-rotation="0"
     showgrid="false"
     inkscape:pagecheckerboard="true"
     fit-margin-top="0"
     fit-margin-left="0"
     fit-margin-right="0"
     fit-margin-bottom="0"
     inkscape:window-width="1904"
     inkscape:window-height="1044"
     inkscape:window-x="8"
     inkscape:window-y="28"
     inkscape:window-maximized="0" />
  <metadata
     id="metadata5">
    <rdf:RDF>
      <cc:Work
         rdf:about="">
        <dc:format>image/svg+xml</dc:format>
        <dc:type
           rdf:resource="http://purl.org/dc/dcmitype/StillImage" />
        <dc:title></dc:title>
      </cc:Work>
    </rdf:RDF>
  </metadata>
  <g
     inkscape:label="Layer 1"
     inkscape:groupmode="layer"
     id="layer1"
     transform="translate(-17.261655,-18.186472)">
    <path
       style="fill:#000000;stroke-width:0.264583"
       id="path877"
       d="" />
    <g
       id="g1214"
       transform="translate(-1.0832932)">
      <g
         id="g1145"
         transform="translate(3.5097464,4.4843756)"
         style="fill:#542344;fill-opacity:1">
        <path
           style="fill:#542344;fill-opacity:1;stroke-width:0.169333"
           d="m 71.655215,66.885094 c -1.04325,-0.33998 -1.80833,-0.98875 -2.25882,-1.91539 -0.36191,-0.74444 -0.39863,-1.07562 -0.46044,-4.15327 l -0.0672,-3.34434 h 1.28977 1.28977 l 3.4e-4,2.921 c 3.4e-4,3.36062 0.14585,3.88806 1.21747,4.41187 0.51476,0.25161 0.74161,0.27415 1.28544,0.12771 1.25637,-0.3383 1.30015,-0.47281 1.35922,-4.17591 l 0.0523,-3.28467 h 1.25994 1.25994 l -0.001,3.175 c -5.1e-4,1.74625 -0.0809,3.46283 -0.17857,3.81463 -0.22614,0.81434 -1.03219,1.7347 -1.92112,2.19358 -0.8795,0.45402 -3.06563,0.57573 -4.12714,0.22979 z m 24.17395,-4.43625 c -1.16243,-2.58007 -2.13997,-4.75852 -2.17232,-4.841 -0.0324,-0.0825 0.56248,-0.12773 1.32184,-0.10053 l 1.38066,0.0495 1.04882,2.496 c 0.57686,1.3728 1.09159,2.49675 1.14386,2.49767 0.0523,8.5e-4 0.61407,-1.14134 1.24844,-2.53834 l 1.153405,-2.54 h 1.3339 c 0.73364,0 1.33389,0.0314 1.33389,0.0698 0,0.0384 -1.01984,2.19104 -2.2663,4.78367 l -2.266315,4.71387 -0.57319,0.0502 -0.57319,0.0502 z m 26.165165,4.44936 c -1.38998,-0.45759 -1.43933,-0.51682 -1.43933,-1.7274 0,-0.60209 0.0295,-1.09471 0.0656,-1.09471 0.0361,0 0.56315,0.2328 1.17119,0.51734 1.28601,0.6018 2.72446,0.65706 3.06285,0.11766 0.30202,-0.48141 -0.072,-0.84206 -1.39792,-1.34807 -2.34152,-0.89358 -3.06818,-1.6536 -3.06999,-3.21094 -8.5e-4,-0.79834 0.0764,-1.05278 0.45755,-1.50576 0.69483,-0.82576 1.60835,-1.16793 3.09733,-1.16016 0.7085,0.004 1.68177,0.13543 2.20134,0.29797 l 0.93133,0.29135 0.051,1.07498 c 0.0574,1.21006 0.20414,1.15723 -1.49032,0.53652 -1.02681,-0.37614 -2.04674,-0.44688 -2.55113,-0.17693 -0.75336,0.40318 -0.24697,0.96047 1.45046,1.59625 2.25987,0.84645 2.96364,1.6008 2.96307,3.17602 -6.8e-4,1.75745 -1.17445,2.7021 -3.46413,2.78786 -0.8105,0.0304 -1.63575,-0.0392 -2.03894,-0.17198 z m -42.587335,-4.68477 v -4.74134 h 1.09329 1.0933 l 2.42037,2.67821 2.42037,2.67821 0.0465,-2.67821 0.0465,-2.67821 h 1.18114 1.18114 v 4.74134 4.74133 h -0.97975 -0.97976 l -2.44924,-2.75167 -2.44925,-2.75166 -0.0465,2.75166 -0.0465,2.75167 h -1.26581 -1.2658 z m 11.176,0 v -4.74134 h 1.27 1.27 v 4.74134 4.74133 h -1.27 -1.27 z m 13.377335,0 v -4.74134 h 3.21733 3.21734 v 1.016 1.016 h -1.94734 -1.94733 v 0.84667 0.84667 h 1.86267 1.86266 v 0.93133 0.93133 h -1.86266 -1.86267 v 1.016 1.016 h 2.032 2.032 v 0.93134 0.93133 h -3.302 -3.302 z m 7.95867,-0.0257 v -4.76704 l 2.54527,0.0978 c 3.49823,0.13444 4.28915,0.52838 4.62756,2.30485 0.15932,0.83636 -0.15742,1.79076 -0.76359,2.30081 l -0.52702,0.44346 0.34325,0.37324 c 0.30057,0.32682 1.90253,3.6147 1.90253,3.90477 0,0.06 -0.6121,0.10913 -1.36021,0.10913 h -1.36022 l -0.75821,-1.63362 c -0.81739,-1.76111 -1.09277,-2.078 -1.81303,-2.08633 l -0.46567,-0.005 v 1.86266 1.86267 h -1.18533 -1.18533 z m 4.19565,-1.08456 c 0.24111,-0.16888 0.37635,-0.43925 0.37635,-0.7524 0,-0.64057 -0.54579,-1.016 -1.47701,-1.016 h -0.72433 v 1.016 1.016 h 0.72433 c 0.39837,0 0.89367,-0.11862 1.10066,-0.2636 z m 12.73768,1.11027 v -4.74134 h 1.27 1.27 v 4.74134 4.74133 h -1.27 -1.27 z m 6.43467,1.016 v -3.72534 h -1.524 -1.524 v -1.016 -1.016 l 5.63033,0.002 5.63033,0.002 0.93134,1.43453 c 0.51223,0.789 0.96943,1.43561 1.016,1.43692 0.0466,10e-4 0.52641,-0.6453 1.06633,-1.43693 l 0.98166,-1.43933 h 1.44945 c 1.20064,0 1.43319,0.0424 1.35467,0.24702 -0.0521,0.13586 -0.89849,1.34797 -1.88079,2.69356 l -1.78599,2.44654 v 2.04777 2.04778 h -1.18533 -1.18533 v -2.0529 -2.0529 l -1.65101,-2.30146 -1.651,-2.30147 -0.0525,0.62903 -0.0526,0.62903 h -1.51377 -1.51378 v 3.72534 3.72533 h -1.27 -1.27 z m 10.63283,-14.11188 c -2.77291,-0.78426 -4.21696,-3.89879 -3.08957,-6.66356 0.35386,-0.867782 1.52851,-2.011672 2.49362,-2.428312 1.28995,-0.55688 3.28369,-0.54027 4.53975,0.0378 1.8622,0.85707 2.75934,2.27297 2.76945,4.370892 0.0137,2.83548 -1.77624,4.6709 -4.71993,4.83993 -0.69999,0.0402 -1.52681,-0.0248 -1.99332,-0.15678 z m 3.35488,-2.6971 c 0.70933,-0.77401 0.98853,-1.75732 0.75024,-2.64225 -0.73798,-2.740652 -4.18459,-2.740652 -4.92257,0 -0.22384,0.83128 0.0174,1.79631 0.63159,2.5262 0.59211,0.70368 0.97199,0.84656 2.06926,0.77827 0.80042,-0.0498 0.98735,-0.13394 1.47148,-0.66222 z m -80.197055,-1.98702 v -4.741342 h 1.27 1.27 v 4.741342 4.74133 h -1.27 -1.27 z m 4.23334,0 v -4.741342 h 1.09329 1.0933 l 2.42037,2.67821 2.42037,2.678212 0.0465,-2.678212 0.0465,-2.67821 h 1.18114 1.18114 v 4.741342 4.74133 h -0.98197 -0.98198 l -2.48936,-2.80426 -2.48935,-2.80426 v 2.80426 2.80426 h -1.27 -1.27 z m 13.37733,0.93133 v -3.810002 h -1.524 -1.524 v -0.93133 -0.93134 h 4.318 4.318 v 0.93134 0.93133 h -1.524 -1.524 v 3.810002 3.81 h -1.27 -1.27 z m 6.43467,-0.93133 v -4.741342 h 3.21733 3.21733 v 0.93134 0.93133 h -1.94733 -1.94733 v 0.846672 0.84666 h 1.86266 1.86267 v 1.016 1.016 h -1.86267 -1.86266 v 1.016 1.016 h 1.94733 1.94733 v 0.93134 0.93133 h -3.21733 -3.21733 z m 7.958665,-0.021 v -4.762292 l 2.49767,0.0746 c 3.71333,0.11092 4.61433,0.6341 4.61433,2.679362 0,0.98875 -0.18835,1.45209 -0.80037,1.96885 l -0.4298,0.3629 0.41545,0.56843 c 0.36737,0.50264 1.83072,3.51808 1.83072,3.77244 0,0.0539 -0.62865,0.0962 -1.397,0.0941 l -1.397,-0.004 -0.66542,-1.55056 c -0.76528,-1.78322 -1.0823,-2.16704 -1.78991,-2.16704 h -0.508 v 1.86266 1.86267 h -1.18533 -1.18534 z m 4.31239,-1.15971 c 0.39072,-0.32427 0.32559,-1.124592 -0.11673,-1.434402 -0.20699,-0.14498 -0.70229,-0.2636 -1.10067,-0.2636 h -0.72432 v 1.037542 1.03755 l 0.84105,-0.0808 c 0.46257,-0.0445 0.95787,-0.17777 1.10067,-0.29627 z m 4.32361,1.18067 v -4.741342 h 1.0933 1.0933 l 2.42037,2.67821 2.42037,2.678212 0.0465,-2.678212 0.0465,-2.67821 h 1.18114 1.18114 v 4.741342 4.74133 h -0.98198 -0.98197 l -2.48936,-2.80426 -2.48936,-2.80426 v 2.80426 2.80426 h -1.27 -1.27 z m 9.99067,4.60347 c 0,-0.0758 0.89688,-2.19037 1.99307,-4.699 l 1.99307,-4.561142 h 1.4275 1.4275 l 1.49182,3.810002 c 0.8205,2.0955 1.64237,4.21005 1.82639,4.699 l 0.33456,0.889 h -1.32961 -1.32961 l -0.33779,-0.889 -0.3378,-0.889 h -1.9226 -1.9226 l -0.34345,0.889 -0.34344,0.889 h -1.3135 c -0.72243,0 -1.31351,-0.062 -1.31351,-0.13786 z m 6.43467,-3.53662 c 0,-0.0652 -0.24329,-0.76307 -0.54064,-1.5509 l -0.54063,-1.43243 -0.32117,0.74657 c -0.17665,0.41062 -0.46565,1.10852 -0.64223,1.55091 l -0.32106,0.80433 h 1.18286 c 0.65058,0 1.18287,-0.0533 1.18287,-0.11848 z m 5.92666,-0.13552 v -3.810002 h -1.524 -1.524 v -0.93133 -0.93134 h 4.40267 4.40267 v 0.93134 0.93133 h -1.524 -1.524 v 3.810002 3.81 h -1.35467 -1.35467 z m 6.604,-0.93133 v -4.741342 h 1.27 1.27 v 4.741342 4.74133 h -1.27 -1.27 z m 15.24001,0 v -4.741342 l 1.05833,5.1e-4 1.05833,5.1e-4 2.37067,2.65008 2.37067,2.650092 0.0466,-2.650632 0.0466,-2.65063 h 1.18104 1.18103 v 4.741342 4.74133 l -0.97367,-0.007 -0.97366,-0.007 -2.45534,-2.78916 -2.45533,-2.78916 -0.0464,2.79581 -0.0464,2.79582 h -1.18124 -1.18123 v -4.74134 z m 9.82133,4.67143 c 0,-0.0384 0.90851,-2.15299 2.01891,-4.699 l 2.01892,-4.629102 1.41554,-0.0484 1.41553,-0.0484 1.72582,4.451062 c 0.9492,2.44808 1.77405,4.5844 1.833,4.74739 0.0963,0.26626 -0.0286,0.29633 -1.23054,0.29633 h -1.33771 l -0.31657,-0.93133 -0.31657,-0.93134 h -1.90364 -1.90364 l -0.38602,0.93134 -0.38602,0.93133 h -1.3235 c -0.72793,0 -1.32351,-0.0314 -1.32351,-0.0699 z m 6.1747,-4.54443 c -0.213,-0.58209 -0.47649,-1.28694 -0.58554,-1.56634 l -0.19828,-0.508 -0.57877,1.42969 c -0.31833,0.78633 -0.57878,1.49118 -0.57878,1.56634 0,0.0752 0.52395,0.13664 1.16432,0.13664 h 1.16432 z m 4.83197,-0.127 v -4.741342 h 1.18533 1.18533 v 3.725342 3.72533 h 1.94734 1.94733 v 1.016 1.016 h -3.13267 -3.13266 z M 84.870625,31.312782 c -1.19428,-0.33473 -2.13935,-0.99011 -2.7439,-1.9028 -1.69576,-2.56014 -0.68517,-6.08849 2.07408,-7.24138 1.57926,-0.65986 4.02892,-0.4142 5.35177,0.53668 2.91428,2.09482 2.45097,6.92223 -0.79851,8.32012 -1.11438,0.4794 -2.76305,0.6014 -3.88344,0.28738 z m 2.79291,-2.2878 c 0.8263,-0.5038 1.22486,-1.2755 1.22486,-2.37158 0,-1.7243 -1.06048,-2.78116 -2.67117,-2.66205 -2.57546,0.19045 -3.2523,3.66753 -0.98325,5.05118 0.68015,0.41475 1.733,0.40715 2.42956,-0.0175 z m -18.58588,-2.38968 v -4.75942 l 2.58234,0.0663 c 2.8533,0.0733 3.56097,0.27038 4.2016,1.17006 0.52269,0.73404 0.60843,1.97126 0.20052,2.8934 -0.49797,1.12575 -1.26699,1.5394 -3.03438,1.63216 l -1.41008,0.074 v 1.84144 1.84143 h -1.27 -1.27 z m 4.3257,-1.24421 c 0.2286,-0.2286 0.41564,-0.49876 0.41564,-0.60036 0,-0.1016 -0.18704,-0.37176 -0.41564,-0.60036 -0.30431,-0.30431 -0.59913,-0.41564 -1.10067,-0.41564 h -0.68503 v 1.016 1.016 h 0.68503 c 0.50154,0 0.79636,-0.11133 1.10067,-0.41564 z m 4.14097,1.26231 v -4.74134 h 1.27 1.27 v 4.74134 4.74133 h -1.27 -1.27 z m 15.07067,0 v -4.74134 l 1.143,5e-5 1.143,5e-5 2.37066,2.65832 2.37067,2.65832 0.0466,-2.65837 0.0466,-2.65837 h 1.181035 1.18103 v 4.74134 4.74133 l -0.97366,-0.007 -0.97367,-0.007 -2.455335,-2.78916 -2.45534,-2.78916 -0.0464,2.79581 -0.0464,2.79582 h -1.26591 -1.2659 z m 11.176005,0 v -4.74134 h 3.13266 3.13267 v 0.93134 0.93133 h -1.86267 -1.86266 v 0.84667 0.84666 h 1.778 1.778 v 0.93134 0.93133 h -1.778 -1.778 v 1.016 1.016 h 1.94733 1.94733 v 1.016 1.016 h -3.21733 -3.21733 z m 7.78933,0 v -4.74134 h 3.13267 3.13266 v 0.93134 0.93133 h -1.94733 -1.94733 v 0.84667 0.84666 h 1.86266 1.86267 v 0.93134 0.93133 h -1.86267 -1.86266 v 1.016 1.016 h 2.032 2.032 v 1.016 1.016 h -3.21734 -3.21733 z m 7.78933,0 v -4.74134 h 2.25527 c 2.66696,0 3.76724,0.2552 4.41395,1.02377 0.85513,1.01627 0.78649,2.59142 -0.15147,3.47604 -0.48102,0.45365 -0.53059,0.56837 -0.33206,0.76839 0.28509,0.28724 1.72458,3.20065 1.87239,3.78958 l 0.10664,0.42489 h -1.34829 -1.34829 l -0.72385,-1.60214 c -0.77629,-1.71818 -1.01282,-2.0159 -1.73862,-2.18834 l -0.46567,-0.11064 v 1.95056 1.95056 h -1.27 -1.27 z m 4.445,-1.38287 c 0.3847,-0.45175 0.37413,-0.74067 -0.0423,-1.15713 -0.23832,-0.23832 -0.56444,-0.33867 -1.10067,-0.33867 h -0.762 v 1.03523 1.03522 l 0.80434,-0.11334 c 0.49662,-0.07 0.9177,-0.24646 1.10066,-0.46131 z"
           id="path879"
           sodipodi:nodetypes="cscccccssccccccsccscccscscssccccscssssscscscsssscccccccccccccccccccccccccccccccccccccccccccccccccccccccccccccssscssscscccccccssscccsscccccccccccccccccscscscscccccccccccccccccccssccsccssssssccccccccccccccccccccccccccccccccccccccccccccccccccccccccccccccccccccccccccssscssccssccccccsssccccsscccccccccccccccccccccsscccsscccccccccsssscsscssccccccccccccccccccccccccccccccccccccccccccccccccsscccssscccccccssssscssscscccccccccccccscsssscssscccccsssccccccsssscccssccccccccccccccccccccccccccccccccccccccccccccccccccccccccccccccccccccccccccccccccccssssscccsscccccccsscccccc" />
      </g>
      <g
         id="g1208"
         transform="translate(-146.80432,-5.1749998)"
         style="fill:#ee3342;fill-opacity:1">
        <path
           style="fill:#ee3342;fill-opacity:1;stroke-width:0.169333"
           d="m 175.00786,83.333783 -6.03037,-6.35477 V 56.663783 36.348561 l 16.72167,0.0173 c 10.05954,0.0104 16.51927,0.0773 16.21366,0.1679 -0.2794,0.0828 -6.2992,0.99132 -13.37733,2.01885 -7.07813,1.02753 -13.07888,1.91053 -13.335,1.96222 -0.38025,0.0767 -0.46567,0.1847 -0.46567,0.58853 v 0.49455 h 16.51 16.51001 v -2.54 c 0,-1.397 0.0571,-2.53978 0.127,-2.53951 0.0698,3.3e-4 1.3081,0.67577 2.75166,1.50113 l 2.62467,1.50064 0.0431,18.364712 0.0431,18.36471 -15.96109,6.71949 c -8.7786,3.69572 -16.04747,6.71949 -16.15305,6.71949 -0.10557,0 -2.90561,-2.85965 -6.22232,-6.35478 z m 4.04714,-7.06489 c 0.16147,-0.36804 0.24491,-0.381 2.45316,-0.381 2.20825,0 2.29168,0.013 2.45315,0.381 0.22805,0.51982 1.27218,0.55721 1.27218,0.0456 0,-0.46245 0.41455,-0.53302 2.794,-0.47559 1.92198,0.0464 2.04105,0.0697 2.19916,0.43003 0.10986,0.25043 0.31372,0.381 0.59484,0.381 0.28112,0 0.48498,-0.13057 0.59485,-0.381 0.16189,-0.369 0.24176,-0.381 2.53782,-0.381 2.32955,0 2.3716,0.007 2.42478,0.381 0.0439,0.30881 0.16195,0.381 0.62322,0.381 0.46127,0 0.57936,-0.0722 0.62322,-0.381 0.0532,-0.37439 0.0952,-0.381 2.42478,-0.381 2.29605,0 2.37593,0.012 2.53782,0.381 0.16248,0.37036 0.23698,0.381 2.667,0.381 h 2.49985 v -8.12799 -8.128 h -2.92318 c -2.86903,0 -2.92628,0.007 -3.09034,0.381 -0.15553,0.3545 -0.27312,0.381 -1.69115,0.381 -1.41803,0 -1.53562,-0.0265 -1.69116,-0.381 -0.1525,-0.34762 -0.28132,-0.381 -1.46989,-0.381 -1.22206,0 -1.30608,0.0236 -1.35684,0.381 -0.0518,0.36457 -0.12345,0.381 -1.66278,0.381 -1.53932,0 -1.611,-0.0164 -1.66278,-0.381 -0.0508,-0.35741 -0.13478,-0.381 -1.35684,-0.381 -1.18857,0 -1.31739,0.0334 -1.46989,0.381 -0.15553,0.3545 -0.27313,0.381 -1.69116,0.381 -1.41802,0 -1.53562,-0.0265 -1.69115,-0.381 -0.1525,-0.34762 -0.28132,-0.381 -1.46989,-0.381 -1.22206,0 -1.30609,0.0236 -1.35685,0.381 -0.0518,0.36457 -0.12345,0.381 -1.66277,0.381 -1.53933,0 -1.611,-0.0164 -1.66278,-0.381 -0.0534,-0.37569 -0.0894,-0.381 -2.58233,-0.381 h -2.52823 v 8.128 8.12799 h 2.07652 c 1.991,0 2.08339,-0.0157 2.24366,-0.381 z m 0.12089,-1.003 c -0.11426,-0.11425 -0.20773,-0.32965 -0.20773,-0.47866 0,-0.58031 0.36573,-0.67733 2.55313,-0.67733 2.31252,0 2.60751,0.1039 2.49753,0.87967 -0.0543,0.38286 -0.0991,0.39122 -2.34527,0.43719 -1.63746,0.0335 -2.34912,-0.0123 -2.49766,-0.16087 z m 6.17506,0.0904 c -0.20143,-0.20143 -0.12868,-0.8569 0.11782,-1.06148 0.1577,-0.13087 0.9474,-0.17959 2.39488,-0.14773 1.84027,0.0405 2.18718,0.0914 2.34618,0.34387 0.13591,0.21583 0.1359,0.37682 -4e-5,0.59266 -0.16004,0.25413 -0.51098,0.30302 -2.46401,0.34323 -1.25256,0.0258 -2.33024,-0.006 -2.39483,-0.0705 z m 6.18627,-0.0904 c -0.28035,-0.28035 -0.26134,-0.57019 0.0584,-0.8899 0.21309,-0.21309 0.67686,-0.26558 2.32833,-0.2635 1.13423,0.001 2.16359,0.0668 2.28746,0.14537 0.12793,0.0811 0.20108,0.35431 0.16934,0.63241 l -0.0559,0.48963 -2.28993,0.0469 c -1.63746,0.0335 -2.34913,-0.0123 -2.49767,-0.16087 z m 6.17506,0.0904 c -0.20143,-0.20143 -0.12867,-0.8569 0.11783,-1.06148 0.1577,-0.13087 0.94739,-0.17959 2.39487,-0.14773 1.84027,0.0405 2.18718,0.0914 2.34618,0.34387 0.13591,0.21583 0.1359,0.37682 -3e-5,0.59266 -0.16005,0.25413 -0.51098,0.30302 -2.46401,0.34323 -1.25257,0.0258 -2.33024,-0.006 -2.39484,-0.0705 z m -18.06956,-1.75953 c -0.14195,-0.26523 -0.1397,-0.41581 0.009,-0.59483 0.2303,-0.2775 0.69629,-9.65875 0.5001,-10.06798 -0.067,-0.1397 -0.09,-0.34227 -0.0511,-0.45015 0.0389,-0.10789 -0.01,-0.24573 -0.10755,-0.30633 -0.098,-0.0606 -0.17827,-0.25808 -0.17827,-0.43885 0,-0.30343 0.13006,-0.32867 1.69334,-0.32867 1.56328,0 1.69333,0.0252 1.69333,0.32867 0,0.18077 -0.0814,0.37898 -0.18088,0.44046 -0.0995,0.0615 -0.13627,0.22804 -0.0817,0.37012 0.0545,0.14209 0.0199,0.35385 -0.077,0.47059 -0.22119,0.26652 0.2686,9.30973 0.53295,9.84023 0.0983,0.19731 0.1513,0.50211 0.11773,0.67733 -0.0545,0.28451 -0.25462,0.32373 -1.87039,0.36657 -1.68952,0.0448 -1.82194,0.0245 -1.99941,-0.30716 z m 6.21705,0.23635 c -0.16698,-0.16697 -0.14706,-0.80976 0.031,-1.00163 0.14377,-0.15489 0.5532,-9.14223 0.46121,-10.12377 -0.0248,-0.26413 -0.14526,-0.54219 -0.26778,-0.61791 -0.12252,-0.0757 -0.17595,-0.25967 -0.11874,-0.40877 0.15508,-0.40412 3.29292,-0.4006 3.44813,0.004 0.0622,0.16212 -0.003,0.33569 -0.1589,0.42294 -0.1529,0.0856 -0.22912,0.28291 -0.18074,0.46792 0.046,0.17598 0.0191,0.35988 -0.0599,0.40868 -0.24484,0.15131 0.34692,9.45673 0.62947,9.89842 0.18399,0.28762 0.19826,0.45442 0.058,0.67733 -0.15426,0.24511 -0.489,0.30392 -1.95483,0.34347 -0.97277,0.0263 -1.82191,-0.005 -1.88696,-0.0705 z m 6.18939,-0.005 c -0.25922,-0.1046 -0.27877,-0.76901 -0.03,-1.01783 0.1631,-0.1631 0.36179,-3.36487 0.5471,-8.8163 0.0536,-1.57773 0.0303,-1.7427 -0.25991,-1.83479 -0.18045,-0.0573 -0.29543,-0.22354 -0.26491,-0.38307 0.0806,-0.42108 3.3054,-0.51566 3.46429,-0.10161 0.0585,0.15249 0.0165,0.33281 -0.0933,0.40071 -0.10986,0.0679 -0.15054,0.25167 -0.0904,0.4084 0.0601,0.15672 0.0215,0.3908 -0.0859,0.52018 -0.23297,0.28071 0.24627,9.56112 0.50748,9.82732 0.25215,0.25698 0.18251,0.89411 -0.11,1.00635 -0.31724,0.12174 -3.27875,0.11401 -3.58448,-0.009 z m 6.1399,-0.0546 c -0.0567,-0.0917 -0.0271,-0.75849 0.0657,-1.48167 0.0928,-0.72318 0.21959,-2.83888 0.28172,-4.70154 0.0621,-1.86267 0.13018,-3.82786 0.15121,-4.3671 0.0282,-0.72358 -0.0281,-1.01753 -0.21479,-1.12204 -0.14674,-0.0821 -0.20871,-0.25712 -0.14753,-0.41657 0.15642,-0.40761 3.2932,-0.40761 3.44962,0 0.0629,0.16402 -0.005,0.33664 -0.16762,0.42781 -0.15022,0.0841 -0.22967,0.26611 -0.17655,0.40453 0.0531,0.13842 0.008,0.35817 -0.0998,0.48832 -0.29733,0.35825 0.26745,9.61207 0.59814,9.80046 0.29117,0.16588 0.30934,0.65654 0.0345,0.93139 -0.24983,0.24984 -3.62254,0.28237 -3.77456,0.0364 z m 9.56577,-14.39588 c 0,-0.33635 -0.11289,-0.33867 -16.51001,-0.33867 -16.39711,0 -16.51,0.002 -16.51,0.33867 0,0.33635 0.11289,0.33866 16.51,0.33866 16.39712,0 16.51001,-0.002 16.51001,-0.33866 z m -28.78667,-1.3208 c 0,-0.61654 0.3381,-0.7112 2.54,-0.7112 2.20189,0 2.54,0.0947 2.54,0.7112 0,0.23545 0.13484,0.3048 0.59266,0.3048 0.45783,0 0.59267,-0.0693 0.59267,-0.3048 0,-0.61654 0.33811,-0.7112 2.54,-0.7112 2.20189,0 2.54,0.0947 2.54,0.7112 0,0.23641 0.13521,0.3048 0.60266,0.3048 0.35018,0 0.55972,-0.0695 0.50017,-0.16584 -0.0564,-0.0912 -0.0201,-0.31981 0.0806,-0.508 0.16861,-0.31505 0.34928,-0.34216 2.27998,-0.34216 1.15328,0 2.21739,0.0462 2.36471,0.10278 0.14732,0.0565 0.26785,0.28513 0.26785,0.508 0,0.35021 0.0804,0.40522 0.59267,0.40522 0.51222,0 0.59266,-0.055 0.59266,-0.40522 0,-0.22287 0.12054,-0.45147 0.26785,-0.508 0.14732,-0.0565 1.19888,-0.10278 2.3368,-0.10278 2.13491,0 2.47535,0.0978 2.47535,0.7112 0,0.27996 0.20697,0.3048 2.54,0.3048 h 2.54001 v -7.874002 -7.874 h -2.95334 c -1.78624,0 -2.9947,0.0669 -3.058,0.16933 -0.0577,0.0934 -0.81687,0.16933 -1.69333,0.16933 -0.87646,0 -1.6356,-0.0759 -1.69334,-0.16933 -0.0576,-0.0931 -0.70975,-0.16933 -1.44932,-0.16933 -0.78356,0 -1.34468,0.0707 -1.34468,0.16933 0,0.1016 -0.67733,0.16933 -1.69333,0.16933 -1.016,0 -1.69333,-0.0677 -1.69333,-0.16933 0,-0.0987 -0.56112,-0.16933 -1.34467,-0.16933 -0.73957,0 -1.39177,0.0762 -1.44933,0.16933 -0.0577,0.0934 -0.81687,0.16933 -1.69334,0.16933 -0.87646,0 -1.63559,-0.0759 -1.69333,-0.16933 -0.0576,-0.0931 -0.70976,-0.16933 -1.44933,-0.16933 -0.78356,0 -1.34467,0.0707 -1.34467,0.16933 0,0.1016 -0.67733,0.16933 -1.69333,0.16933 -1.016,0 -1.69334,-0.0677 -1.69334,-0.16933 0,-0.10536 -0.95955,-0.16933 -2.54,-0.16933 h -2.54 v 7.874 7.874002 h 2.11667 c 1.92538,0 2.11667,-0.0275 2.11667,-0.3048 z m 0.0668,-1.28931 c -0.0525,-0.13683 -0.0689,-0.38658 -0.0365,-0.555 0.0536,-0.27861 0.28023,-0.30623 2.51199,-0.30623 h 2.45301 v 0.508 0.508 l -2.41652,0.047 c -1.99973,0.0389 -2.43299,0.004 -2.51199,-0.20178 z m 6.26533,0 c -0.0525,-0.13683 -0.0689,-0.38658 -0.0365,-0.555 0.0537,-0.27861 0.28023,-0.30623 2.51199,-0.30623 h 2.45301 v 0.508 0.508 l -2.41652,0.047 c -1.99972,0.0389 -2.43299,0.004 -2.51199,-0.20178 z m 6.20909,-0.002 c -0.11491,-0.13846 -0.15801,-0.40764 -0.0964,-0.60186 0.10691,-0.33684 0.21068,-0.34942 2.51166,-0.30445 l 2.40013,0.0469 v 0.508 0.508 l -2.30376,0.0469 c -1.86839,0.0381 -2.34306,-3.3e-4 -2.51166,-0.20354 z m 6.15046,-0.003 c -0.0515,-0.13425 -0.0672,-0.3819 -0.0349,-0.55033 0.0528,-0.27513 0.29786,-0.31102 2.41389,-0.35352 1.34135,-0.0269 2.42482,0.0224 2.51703,0.1146 0.0891,0.089 0.11269,0.35798 0.0525,0.59763 l -0.10936,0.43572 h -2.37276 c -1.91017,0 -2.39101,-0.0476 -2.46642,-0.24411 z m -18.07826,-1.5408 c -0.0573,-0.14939 -0.0174,-0.43391 0.0888,-0.63227 0.23537,-0.43981 0.66735,-9.620812 0.46331,-9.846992 -0.32057,-0.35537 0.24679,-0.60517 1.37446,-0.60517 1.16947,0 1.71216,0.2521 1.34121,0.62305 -0.2209,0.2209 0.28119,9.117922 0.54411,9.641692 0.0991,0.19731 0.1526,0.50211 0.11902,0.67733 -0.0547,0.2856 -0.25603,0.32353 -1.94386,0.36628 -1.60036,0.0405 -1.89844,0.007 -1.98704,-0.22393 z m 6.27278,0.14802 c -0.16353,-0.16353 -0.13868,-0.8649 0.033,-0.93133 0.13558,-0.0524 0.58566,-9.126662 0.48995,-9.877782 -0.0393,-0.30826 0.0694,-0.34318 1.21043,-0.38894 1.28459,-0.0515 1.73222,0.10805 1.42721,0.50877 -0.24594,0.3231 0.32261,9.421912 0.61804,9.890742 0.12427,0.19722 0.17821,0.48297 0.11986,0.635 -0.0891,0.23222 -0.40035,0.27643 -1.94583,0.27643 -1.01187,0 -1.89056,-0.0508 -1.95265,-0.11289 z m 6.03574,-0.16354 c -0.0583,-0.15203 -0.0143,-0.42344 0.0979,-0.60313 0.18432,-0.29514 0.38603,-3.36502 0.57641,-8.772442 l 0.0566,-1.60866 1.24278,-0.0503 c 1.31495,-0.0532 1.73149,0.11097 1.37414,0.54155 -0.16584,0.19983 -0.15273,1.20334 0.0637,4.87551 0.14988,2.543132 0.35627,4.790192 0.45864,4.993462 0.39209,0.7785 0.13608,0.90041 -1.89087,0.90041 -1.5765,0 -1.8901,-0.0438 -1.97937,-0.27643 z m 6.29944,0.11045 c -0.0601,-0.0973 -0.0307,-0.72834 0.0655,-1.40242 0.18206,-1.2769 0.47414,-8.035882 0.39506,-9.141932 l -0.0454,-0.635 h 1.34775 c 1.36158,0 1.72947,0.15679 1.3737,0.58547 -0.29939,0.36075 0.26823,9.389812 0.61443,9.773602 0.14077,0.15605 0.22931,0.42275 0.19675,0.59267 -0.0524,0.2735 -0.2759,0.3144 -1.94884,0.35668 -1.18186,0.0299 -1.93056,-0.0185 -1.99891,-0.12907 z M 179.8148,43.629291 c 0,-0.31609 0.11289,-0.33867 1.69334,-0.33867 1.58044,0 1.69333,0.0226 1.69333,0.33867 0,0.31609 -0.11289,0.33866 -1.69333,0.33866 -1.58045,0 -1.69334,-0.0226 -1.69334,-0.33866 z m 6.17524,0.16054 c -0.23895,-0.38663 0.24512,-0.51141 1.79861,-0.46359 1.28175,0.0394 1.59349,0.0987 1.59349,0.30305 0,0.20493 -0.31628,0.26333 -1.63732,0.3023 -1.07676,0.0318 -1.67753,-0.0168 -1.75478,-0.14176 z m 6.096,0 c -0.23895,-0.38663 0.24512,-0.51141 1.79861,-0.46359 1.28175,0.0394 1.59349,0.0987 1.59349,0.30305 0,0.20493 -0.31628,0.26333 -1.63732,0.3023 -1.07676,0.0318 -1.67753,-0.0168 -1.75478,-0.14176 z m 6.30471,0.071 c -0.0652,-0.0652 -0.11861,-0.22288 -0.11861,-0.35032 0,-0.18411 0.35647,-0.22179 1.73566,-0.18344 1.40848,0.0392 1.73567,0.0961 1.73567,0.30226 0,0.20469 -0.31392,0.26332 -1.61705,0.30205 -0.88939,0.0264 -1.67044,-0.005 -1.73567,-0.0705 z m -29.41328,-9.03687 v -0.67733 h 22.18267 22.18267 v 0.67733 0.67734 h -22.18267 -22.18267 z m 0.0931,-1.50484 c 0.21849,-0.20397 21.39602,-6.28508 21.8867,-6.28475 0.49193,3.3e-4 22.07448,6.0875 22.29237,6.28737 0.0915,0.0839 -9.43502,0.14756 -22.08953,0.14756 -12.94981,0 -22.18316,-0.0628 -22.08954,-0.15018 z"
           id="path1206"
           sodipodi:nodetypes="ccccscscscccscscccssscsscsssssssssssscccssssssscssssssscscccssssssssscsssssccssccsccsscsssssccccsscsssscsssscccscssssscssccccscccscccsscccscscsccscssccssssscsssssssssscssscssscccssscssssssscssssscccsccssscccsssscscccsssccsccccccccccccsccscssscccssscssssssssccccsssssccccscsssscccsssssccsccccscccscscccccccccccccscsc" />
      </g>
    </g>
  </g>
</svg>
